<svg width="32" height="53" viewBox="0 0 32 53" fill="none" xmlns="http://www.w3.org/2000/svg">
<path d="M29.5549 10.413C28.4436 5.53732 25.6488 1.56886 25.2638 0.927423C24.6525 1.83597 22.4155 5.33623 21.2757 9.21049C20.0306 13.5467 19.8435 17.3923 20.2667 21.1641C20.6868 24.9508 22.2868 28.8433 22.2868 28.8433C23.1367 30.8716 24.4113 33.0644 25.2415 34.1386C26.4622 32.56 29.269 27.8531 30.1498 21.7127C30.64 18.2849 30.6646 15.2887 29.5549 10.413ZM25.225 32.9163C24.6774 31.8871 23.8273 29.9333 23.7502 26.8924C23.7328 23.9707 24.9129 21.453 25.2575 20.9317C25.5634 21.4538 26.5747 23.6462 26.6922 26.6425C26.7709 29.5643 25.7931 31.8735 25.225 32.9163ZM29.2203 18.6856C29.1762 20.5489 28.9509 22.5162 28.6654 23.6935C28.7695 21.6663 28.5292 18.8189 28.0653 16.5824C27.6014 14.3608 26.2854 10.6327 25.2331 8.91716C24.2576 10.5557 23.0543 13.774 22.4228 16.5607C21.7883 19.3474 21.7663 22.7311 21.765 23.7447C21.5986 22.8949 21.1835 19.8386 21.3054 16.7829C21.4071 14.2639 22.0025 11.656 22.3285 10.4639C23.5716 6.48542 24.976 3.93815 25.2397 3.53599C25.5024 3.93878 27.2633 7.08614 28.1745 10.3815C29.0813 13.6769 29.2614 16.8373 29.2203 18.6856Z" fill="#999999" fill-opacity="0.3"/>
<path d="M27.1733 34.8777L18.7623 34.8675L18.7554 40.5247C18.7628 40.5247 18.7688 40.5099 18.7762 40.5099C20.7603 38.5226 23.9742 38.5265 25.9549 40.5186C27.9342 42.4958 27.9303 45.7179 25.9462 47.7052C25.9373 47.72 25.9284 47.72 25.9195 47.7348C25.9092 47.7348 25.8988 47.7496 25.8899 47.7645C23.9103 49.7221 21.3261 50.6989 18.7431 50.6958C16.1482 50.6926 13.5546 49.7095 11.5783 47.7174C8.0931 44.2238 7.68646 38.8037 10.3512 34.8573C10.7103 34.3232 11.1242 33.8188 11.5957 33.3443C13.5768 31.357 16.1729 30.3802 18.7677 30.3833L18.7842 16.7823C8.81361 16.7702 0.721574 24.8527 0.70946 34.8456C0.697346 44.8385 8.76974 52.9555 18.7403 52.9676C23.9389 52.9739 28.6247 50.7672 31.9229 47.2521L31.9379 34.8835L27.1733 34.8777Z" fill="#999999" fill-opacity="0.3"/>
</svg>
