<svg width="36" height="33" viewBox="0 0 36 33" fill="none" xmlns="http://www.w3.org/2000/svg">
<path d="M31.1404 0.523231C30.1846 0.523231 29.4607 1.16454 29.1001 1.93522L23.8631 10.6547C23.5 11.4611 23.2349 12.367 23.2349 12.9667C23.2349 13.5026 23.3076 13.9761 23.5018 14.4125L29.1668 28.0992H7.16825C6.37635 28.0992 5.7228 27.2948 5.7228 26.5522V2.97593C5.55635 -0.247143 0.975878 -0.245409 0.875 3.07719L0.975069 28.0992C0.975069 30.8196 3.05457 32.999 5.7228 32.999H35.7158L28.4052 14.0806C28.2034 13.3763 28.1135 12.7375 28.6053 11.8979L33.442 3.94351C33.5101 3.77763 33.6088 3.07627 33.6088 2.87467C33.513 1.43028 32.3938 0.459433 31.1404 0.523231ZM19.2655 0.534482C18.089 0.542456 16.9139 1.36439 16.9139 2.97593V19.8467C16.9139 22.2965 13.6561 22.0949 13.6561 19.8467V2.97593C13.6561 -0.247143 8.9417 -0.247144 8.9417 2.97593V19.9817C8.9417 23.8708 11.8132 26.4566 15.2405 26.4566C18.7612 26.4566 21.6227 23.8708 21.6227 19.9817V2.97593C21.6227 1.33249 20.442 0.526507 19.2655 0.534482Z" fill="#999999" fill-opacity="0.3"/>
</svg>
