<svg width="30" height="43" viewBox="0 0 30 43" fill="none" xmlns="http://www.w3.org/2000/svg">
<path fill-rule="evenodd" clip-rule="evenodd" d="M0.25 12.5702H3.95627V25.1384L0.25 21.8678V12.5702Z" fill="#999999" fill-opacity="0.3"/>
<path fill-rule="evenodd" clip-rule="evenodd" d="M4.68359 8.43066H8.24265V29.2075L4.68359 25.7887V8.43066Z" fill="#999999" fill-opacity="0.3"/>
<path fill-rule="evenodd" clip-rule="evenodd" d="M8.96976 4.29053H12.6022V23.9754H8.96976V4.29053Z" fill="#999999" fill-opacity="0.3"/>
<path fill-rule="evenodd" clip-rule="evenodd" d="M13.3261 0.149658H17.1038V19.9074H13.3261V0.149658Z" fill="#999999" fill-opacity="0.3"/>
<path fill-rule="evenodd" clip-rule="evenodd" d="M17.6127 4.07007H21.2461V23.975H17.6127V4.07007Z" fill="#999999" fill-opacity="0.3"/>
<path fill-rule="evenodd" clip-rule="evenodd" d="M22.118 8.35388H25.6771V25.7164L22.118 29.2071V8.35388Z" fill="#999999" fill-opacity="0.3"/>
<path fill-rule="evenodd" clip-rule="evenodd" d="M26.3289 12.4972H29.9643V21.5787L26.3289 25.1388V12.4972Z" fill="#999999" fill-opacity="0.3"/>
<path fill-rule="evenodd" clip-rule="evenodd" d="M8.96976 24.4141H12.6022V42.6411H8.96976V24.4141Z" fill="white"/>
<path fill-rule="evenodd" clip-rule="evenodd" d="M13.3261 20.4919H16.8842V42.6418H13.3261V20.4919Z" fill="white"/>
<path fill-rule="evenodd" clip-rule="evenodd" d="M17.6127 24.4836H21.2461V42.6413H17.6127V24.4836Z" fill="white"/>
</svg>
