<svg width="42" height="39" viewBox="0 0 42 39" fill="none" xmlns="http://www.w3.org/2000/svg">
<path d="M0.437399 24.8982C0.0672922 23.2988 0 22.6459 0 20.9812C0 9.68708 9.28632 0.645264 20.8269 0.645264C32.4012 0.645264 41.6875 9.68708 41.6875 20.9812C41.6875 22.6459 41.6202 23.2988 41.2501 24.8982L34.8573 29.4354L33.8816 37.0084H23.2831L22.6102 37.498C22.1055 37.8571 21.4326 38.0203 20.8269 38.0203C20.1876 38.0203 19.6157 37.8244 18.9427 37.4001L18.3708 37.0084H7.77224L6.76286 29.4354L0.437399 24.8982ZM18.7745 33.483L19.683 34.1359C20.0194 34.397 20.5241 34.5929 20.8606 34.5929C21.197 34.5929 21.7017 34.397 22.0382 34.1359L22.9466 33.483H30.7189L31.5264 27.2484L37.7173 22.8744C37.9528 21.9604 38.0201 21.634 38.0201 20.7853C38.0201 19.7081 37.7173 18.3698 37.2799 17.4232L37.2462 17.3906L26.0421 28.3256L36.8088 15.4647C36.3714 13.6694 35.5303 12.2005 34.2181 11.0254L34.1508 10.9601L24.4607 27.2811L32.9732 9.45858L32.9395 9.3933C31.8292 7.92441 30.4161 6.94515 28.5655 6.3576L22.6438 26.5956L26.9169 5.50891C25.6383 4.79079 24.1242 4.43173 22.5429 4.43173C22.1055 4.43173 21.9709 4.43173 21.5671 4.49701L20.7596 26.4324L19.7503 4.52965C19.3129 4.49701 19.1783 4.49701 18.8418 4.46437C17.3614 4.46437 15.9819 4.82343 14.5688 5.57419L14.4678 5.60684L18.9764 26.6282L13.0883 6.3576C11.1705 6.9778 9.62278 8.05498 8.64704 9.42594L17.2604 27.1831L7.63766 10.7643C6.29182 11.8088 5.21514 13.5388 4.77774 15.3015L15.5781 28.3256L4.40764 17.3253L4.37399 17.3579C3.90295 18.3045 3.63378 19.5776 3.63378 20.818C3.63378 21.5361 3.73472 22.1889 3.90295 22.9397L10.1948 27.4116L10.9686 33.483H18.7745Z" fill="#E31E24" fill-opacity="1"/>
</svg>
